<svg xmlns="http://www.w3.org/2000/svg" xmlns:xlink="http://www.w3.org/1999/xlink" viewBox="0 0 236.31 211.37">
  <defs>
    <clipPath id="clip-path" transform="translate(-65.26 -70)">
      <rect x="98.84" y="150.85" width="1.22" height="1.38" style="fill: #fff"/>
    </clipPath>
    <clipPath id="clip-path-2" transform="translate(-65.26 -70)"/>
  </defs>
  <g style="isolation: isolate">
    <g id="Layer_1" data-name="Layer 1">
      <path d="M109.7,281h-.24a.55.55,0,0,1-.25-.05.72.72,0,0,1-.22,0,.51.51,0,0,1-.25-.06l-.22-.05-.22-.06-.21-.08h0v0h0l-.07,0v0l0,0,0,0,0-.06v-.7l0-.14v-.35l0-.11v-.19l0-.07v-.35l0,0h.11l0,0v0h0v.53l0,.05.08.36.17.3a1.71,1.71,0,0,0,.22.25l.28.17.3.15.32.1.34.06h.51l.26,0,.38-.1.33-.15a1,1,0,0,0,.28-.24l.22-.26.17-.29.11-.3,0-.3v0l0,0h0v-.08l0-.17v-.17a2798730477769.35,2798730477769.35,0,0,1-.06-.3l0-.06,0-.08,0-.07a.16.16,0,0,0,0-.08l0,0,0-.07v0l0,0,0-.07v0l-.11-.14-.13-.15-.13-.14-.14-.17-.17-.15-.18-.17-.21-.18-.2-.19-.63-.56-.22-.15-.2-.18-.2-.17-.16-.16-.3-.32-.22-.32-.08-.14-.08-.17-.09-.14,0-.15-.06-.14,0-.16,0-.14a.35.35,0,0,0,0-.16v-.48l0-.53a1.3,1.3,0,0,1,.15-.47,1.59,1.59,0,0,1,.23-.43l.35-.38a3.69,3.69,0,0,1,.4-.29,2.67,2.67,0,0,1,.48-.21,2.63,2.63,0,0,1,.57-.13l.64-.06h.54l.17,0,.13,0h.16l.13,0,.16,0,.08,0h.21l0,0H113v0h0v.29l0,0v.13l0,.11v1.19l0,.05,0,0h-.1l0-.06v-.11l0,0V272l0-.07v-.15l0,0v-.05l0-.05v0l0,0,0-.07v-.08l0-.06,0-.07,0,0,0,0,0,0,0,0,0-.05-.06-.06-.11-.05-.12-.09-.16-.05-.15-.07-.18-.06-.21,0h-.49a1.68,1.68,0,0,0-.35,0l-.32.09a.76.76,0,0,0-.29.13l-.26.18a.85.85,0,0,0-.22.24l-.15.28-.09.3,0,.36v.3a.22.22,0,0,0,0,.09l0,.09a.53.53,0,0,0,0,.11.16.16,0,0,0,0,.06l0,.08,0,.08,0,.09.06.09,0,.09.14.18.18.18.21.2.24.21.26.23.3.25.39.27.36.33.32.29.27.27.25.27.2.25.16.24.14.25.13.24v.08l0,.06a.22.22,0,0,0,0,.08l0,0v.09l0,.07v.08l0,.05v.16l0,.13v.43l0,.14,0,.15,0,.15a.22.22,0,0,1,0,.09v.08l0,.1,0,.11a.08.08,0,0,1,0,.05l0,.09,0,.09,0,.08,0,.09,0,.05,0,.09,0,.05-.09.14-.1.12-.11.14-.12.13-.16.11-.14.11-.23.15-.24.11-.25.07-.26.07-.27,0-.28,0-.28,0-.27,0Z" transform="translate(-65.26 -70)" style="fill: #fff;stroke: #fff;stroke-miterlimit: 10;stroke-width: 0.75px"/>
      <path d="M125.22,281a4.74,4.74,0,0,1-.69-.07l-.64-.1a1.4,1.4,0,0,1-.28-.06l-.3-.09-.54-.21-.5-.25-.27-.15-.18-.16-.42-.34-.29-.27-.25-.28-.22-.29-.18-.3-.17-.31-.13-.32-.11-.3-.1-.32,0-.11,0-.12,0-.09,0-.11,0-.23a.48.48,0,0,0,0-.22l0-.11V275l0-.28.06-.31.07-.3.1-.33.11-.32.15-.34v0l0-.05,0-.05,0,0,.06-.08.05-.11.06-.09.05-.08.06-.08.07-.11.12-.18.14-.18.07-.09.08-.09.09-.09.08-.08.33-.29.39-.28.42-.25.48-.24.53-.18.62-.14.68-.08h1.41a.27.27,0,0,1,.17,0h.19l.17,0h.2l.08,0h.21l.12,0h.08l.09,0h.08l.18,0,.19,0,.18,0,.18,0,.09,0h.08l.08,0h.43l.05,0,.08,0,.05,0v.54l0,0v.28l0,.07v1.36l0,.08v.18l-.05,0h-.07l-.07,0v-.42l0-.18,0-.18a.22.22,0,0,0,0-.08l0-.1,0-.11,0-.05-.05-.08-.05-.07,0-.07,0-.09-.11-.12-.11-.13-.21-.13-.25-.16-.15-.05-.15-.08-.17-.06-.18-.07-.39-.1-.41-.06-.43,0-.44,0h-.28l-.31,0-.51,0-.44.08-.25,0-.14.07-.33.15-.29.14-.25.15-.21.14,0,0-.06,0,0,0,0,0-.38.39-.27.4-.22.43-.16.44-.11.47-.07.49,0,.51v.51a5.31,5.31,0,0,0,.09,1,4.35,4.35,0,0,0,.25.91,5.38,5.38,0,0,0,.44.86,4.24,4.24,0,0,0,.61.8,5.74,5.74,0,0,0,.73.67,5.29,5.29,0,0,0,.85.46,5.2,5.2,0,0,0,1,.3l.52.07a4.87,4.87,0,0,0,.55,0h.37a1.84,1.84,0,0,0,.36,0l.34,0,.31-.06.29-.08.27-.13.25-.15.22-.21,0,0,0,0,0,0v-.07l.06-.07.05,0,0,0,0,0,0-.07,0,0,0-.05,0-.09V279l0,0v-.21l0-.06v-.06l0-.07v-.05l0-.05,0-.05,0,0,0,0h0l0,0,0,0v.36l0,.13V279l0,.08v.07c0,.07,0,.12,0,.12v.09a.13.13,0,0,1,0,.08v.08l0,0v.07a.33.33,0,0,1,0,.13v.05a.22.22,0,0,1,0,.09v0l0,.07v.06l0,0v.05l0,.06v.05l0,.06v.11l0,0v0l0,0h0l0,0,0,0h0l0,0h0l0,0h-.06l-.11,0h-.12l-.06,0h-.07l-.21,0-.23.05h-.13l-.12,0h-.13l-.12,0-.25,0a.81.81,0,0,0-.25,0h-1.45" transform="translate(-65.26 -70)" style="fill: #fff;stroke: #fff;stroke-miterlimit: 10;stroke-width: 0.75px"/>
      <path d="M136.3,277.76l2.56-7.09,0-.08,0-.11,0,0,0,0,0-.06v0l0-.05,0,0,0,0h.08l0,0,.05.06,0,0,0,.07a.22.22,0,0,0,0,.08l0,.1,0,.11.07.19.13.34.18.48.25.61.27.7.28.74.3.75.3.8.2.55.21.52.1.28.11.25.08.25.11.25.18.5.18.42.15.39.14.33.18.43.18.35.16.25.15.18.13.13.14.1.13.07.12,0,.06,0h.55v.06h.07v0l0,0h-.06l0,.06h-1.81l-.17-.06h-.76v0h0l0,0v-.06h.1l0,0,0-.05,0,0v-.15h0v-.06l-1.31-3.44h0v0h-.09l-3,0,0,0h-.06l0,0,0,0-.83,2.42-.06.17,0,.14,0,.13,0,.11,0,.12v.41l0,.07.05.07,0,0,.06,0,.08,0h.43l0,.06h0l0,0h0v0h-.08l0,.06h-.69c-.06,0-.09,0-.1-.06h-.89l-.09.06h-1.05l0-.06h-.09v0h0l0,0h0l0-.06h.33l.24,0,.21-.09.18-.13.13-.16.12-.18.11-.2.09-.22.11-.26v-.05Zm4-1.53v0h0v0h0v0l-1.31-3.82,0,0,0,0,0,0h-.06v0l0,0,0,0v0l-1.22,3.73v.11h0v0h0v0Z" transform="translate(-65.26 -70)" style="fill: #fff;stroke: #fff;stroke-miterlimit: 10;stroke-width: 0.75px"/>
      <path d="M151,274.36v-2.9h0v0a.37.37,0,0,0,0-.17v-.14l-.05-.13,0-.11-.07-.07-.12-.07-.12-.06-.16-.06h-.16l0,0h-.39l0,0v0l0-.05,0,0h.07l0,0h.56l0,0H151l.1,0h3.58l.09,0h.72l0,0,.08,0v0h.06l0,0h.12l0,0h0v0h0v.17l0,.05v.11l0,0V271l0,0v.22l0,.1v.21s0,.07,0,.08v.29l0,0V272l0,0v.05l0,0h-.12l0-.06v-.21l0-.09v-.17h0l0,0h0l0-.05v0l-.06,0v0h0v0h0v0l-.07-.07-.07-.05,0,0,0,0H155l0,0h0l-.06,0h-.07l-.05,0h-.15l-.14,0-2.12-.08,0,0-.05,0,0,0V275h.06l1.81-.06.08,0h.65l.11,0H155l.08,0,.06,0,.07,0,.05,0,.07-.07h0v0l0,0,0,0,0,0h.09l0,0v0h0v0h0v.1l0,0,0,.07v.11l0,0v.2l0,.07v.15l0,0v.34l0,.1v.64l0,0,0,0h-.1v-.25l0-.07v-.14h0v0h0v0l0,0v-.05l0,0v0l0,0v0h0l-.06-.06,0-.06-.07-.05-.07-.06h0l0,0h-.06l0,0-.11,0-.11,0h-.11l-.06,0h-.72l-.14,0h-1.09l0,0h0v3.75a1,1,0,0,0,0,.29.78.78,0,0,0,0,.24V280l0,.12,0,.13.05.11.06.1.1.07.11.05.15,0,0,0h.62v0h.05v0h0v0h0l0,0h-.07l0,0h-.56l0,0h-.56l-.12,0h-.93l-.09,0h-.65l0,0h-.16l0,0h-.07l0,0,0,0v0l0,0h0l0,0h.38l0,0h0l.09,0,.07-.05.06-.07.05-.1,0-.06,0-.05v-.06l0-.07,0-.12,0-.15v-.24a1.17,1.17,0,0,1,0-.29V278l0-.22v-3.42Z" transform="translate(-65.26 -70)" style="fill: #fff;stroke: #fff;stroke-miterlimit: 10;stroke-width: 0.75px"/>
      <path d="M163.64,274.36v-2.9h0v0a.37.37,0,0,0,0-.17v-.14l0-.13-.05-.11-.07-.07-.12-.07-.12-.06-.16-.06h-.15l0,0h-.38l0,0v-.09l0,0h.07l0,0h.56l0,0h.47l.1,0h3.58l.09,0h.72l0,0,.08,0v0h.06l0,0h.12l0,0h0v0h0v.17l0,.05v.11l0,0V271l0,0v.53a.22.22,0,0,1,0,.08v.29l0,0V272l0,0v0l0,0,0,0h-.12V272l0,0v-.1l0-.09v-.17h0l0,0h0l0-.05v0l-.06,0v0h0v0h0v0l-.07-.07-.07-.05,0,0,0,0h-.05l0,0h-.05l-.06,0h-.06l-.06,0h-.15l-.14,0-2.12-.08,0,0,0,0,0,0V275h.05l1.81-.06.08,0h.65l.12,0h.08l.08,0,.06,0,.07,0,.05,0,.07-.07h0v0l0,0,0,0,0,0h.1v.05h0v0h0v.14l0,.07v.19l0,0v.13l0,.07v.19l0,.05v.29l0,.1v.64l0,0,0,0h-.1v-.25l0-.07v-.14h0v0h0v0l0,0v-.05l0,0v0l0,0v0h0l-.06-.06-.05-.06-.07-.05-.07-.06h0l0,0h-.06l0,0-.11,0-.11,0h-.11l-.06,0h-.72l-.14,0h-1.09l0,0h0l0,0V279l0,.32a1.85,1.85,0,0,0,0,.29.78.78,0,0,0,0,.24V280l0,.12,0,.13.06.11.05.1.1.07.11.05.15,0,0,0h.62v0h.05v0h0v0h0l0,0H166l0,0h-.56l0,0h-.55l-.13,0h-.93l-.09,0H163l0,0h-.17l0,0h-.07l0,0,0,0v0l0,0h0l0,0h.37l0,0h0l.1,0,.07-.05,0-.07.06-.1v-.06l0-.05v-.06l0-.07,0-.12,0-.15,0-.24a1.23,1.23,0,0,1,0-.29v-.15l0-.17v-4.63Z" transform="translate(-65.26 -70)" style="fill: #fff;stroke: #fff;stroke-miterlimit: 10;stroke-width: 0.75px"/>
      <path d="M174.69,275.41l0-.18V275a.55.55,0,0,1,0-.21.58.58,0,0,1,0-.21l.05-.21.06-.2.05-.21a7.07,7.07,0,0,1,.27-.69l.37-.68a7,7,0,0,1,.47-.64l.59-.62a5.08,5.08,0,0,1,.7-.52,4.57,4.57,0,0,1,.81-.37,7.08,7.08,0,0,1,.93-.22,7.37,7.37,0,0,1,1.07-.08,6.35,6.35,0,0,1,1.12.09,7.63,7.63,0,0,1,1,.26,4.43,4.43,0,0,1,.93.44,4.58,4.58,0,0,1,1.51,1.35,4.61,4.61,0,0,1,.47.86,5.09,5.09,0,0,1,.3,1.05c0,.17.05.36.07.55a5.88,5.88,0,0,1,0,.6,6.39,6.39,0,0,1-.1,1.12,4.16,4.16,0,0,1-.29,1,3.66,3.66,0,0,1-.47,1,5,5,0,0,1-.29.45,2.83,2.83,0,0,1-.36.43,5.6,5.6,0,0,1-.83.73,6.47,6.47,0,0,1-.94.51l-.51.15-.64.13a5.49,5.49,0,0,1-1.11.11,5.89,5.89,0,0,1-1.12-.09l-.58-.1-.47-.13a5.55,5.55,0,0,1-.86-.41,3.45,3.45,0,0,1-.7-.61,6.7,6.7,0,0,1-1-1.44l-.31-.77q-.06-.18-.12-.39c0-.15-.07-.29-.09-.42l0-.06v-.21l0-.05v-.26l0-.06v-.58Zm1.39.95a5.82,5.82,0,0,0,.24,1,4.56,4.56,0,0,0,.4.92,4.74,4.74,0,0,0,.56.77,4.13,4.13,0,0,0,.68.64l.37.24.39.21.48.18.34.09a4.16,4.16,0,0,0,.9.09h.15l.18,0H181l.21,0,.21,0a.88.88,0,0,0,.2-.07.83.83,0,0,0,.21-.07l.22-.1.41-.21a2.91,2.91,0,0,0,.4-.33l.37-.37a1.54,1.54,0,0,0,.17-.22,2.26,2.26,0,0,0,.2-.27,4.5,4.5,0,0,0,.31-.55l.22-.69a6.73,6.73,0,0,0,.12-.82l.06-.94a7.42,7.42,0,0,0-.06-1l-.12-.66c0-.17-.08-.33-.14-.51a4,4,0,0,0-.4-.86A4.88,4.88,0,0,0,183,272c-.08-.09-.19-.18-.32-.3l-.34-.27a3.75,3.75,0,0,0-.72-.42,4.4,4.4,0,0,0-.75-.25,4.17,4.17,0,0,0-.8-.08h-.42l-.51.07a3.54,3.54,0,0,0-.66.21,2.53,2.53,0,0,0-.69.36l-.31.22-.3.28a2.84,2.84,0,0,0-.49.62,4.61,4.61,0,0,0-.38.8,5.58,5.58,0,0,0-.19.84c0,.27-.07.47-.08.6s0,.31,0,.56v-.05c0,.21,0,.41,0,.61a5.42,5.42,0,0,0,.06.58" transform="translate(-65.26 -70)" style="fill: #fff;stroke: #fff;stroke-miterlimit: 10;stroke-width: 0.75px"/>
      <path d="M194.55,276.84v1.87a1.4,1.4,0,0,0,0,.4,1.31,1.31,0,0,0,0,.33l0,.27.07.2.1.12.1.08.11.07.14.06.16,0,.2,0,.26,0H197l.24,0a.78.78,0,0,0,.24,0l.2,0,.18-.07.17-.1.14-.15,0,0,0-.06,0-.06,0,0v0l0-.05,0-.09,0-.05v-.1h0l.07,0v-.08l0,0v-.18l0,0V279l0,0,0,0h.07V279l0,0v.15l0,.07v.41l0,.13v.12l0,0v.09l0,.08v.07l0,0a.29.29,0,0,1,0,.1v.07l0,0v.06h0l0,0v0l0,.06,0,0,0,0,0,0-.06,0,0,0-.1,0-.14,0h-1.74l-.28,0h-.71a.69.69,0,0,1-.22,0h-.55l-.17,0h-.61l-.05,0h-1l0,0h-.18l0,0h-.07l0,0v-.05l0,0h0l0,0h.37l0,0h0l.1,0,.07-.05.05-.07.06-.09v-.06l0-.05v-.06l0-.06,0-.13,0-.15,0-.23a.74.74,0,0,1,.05-.28v-7.92h0v0a.37.37,0,0,0,0-.17v-.14l0-.12-.06-.12-.07-.06-.11-.07-.13-.06-.16-.06h-.28l0,0h-.25l0,0v-.08l0-.05h.67l0,0h.47l.09,0h1l.13,0h.65l.08,0h.19l0,0h.07l0,0,0,0v0l0,0,0,0h0v0h-.29l-.06,0h-.15l-.15,0-.11.06-.1.07-.05.08-.06.11,0,.13,0,.13,0,.17v0h0l0,.18,0,.2v5Z" transform="translate(-65.26 -70)" style="fill: #fff;stroke: #fff;stroke-miterlimit: 10;stroke-width: 0.75px"/>
      <path d="M206,274.36v-2.74l-.05-.1v-.44l0-.13-.06-.11-.07-.07-.11-.07-.13-.06-.15-.05h0l0,0h-.22l0,0h-.25l0,0v-.08l.05-.05H206l.09.05h1l.14-.05H210a1.73,1.73,0,0,1,.36,0l.37,0,.39.07.39.07.16,0,.17.06.15.06.17.05a.4.4,0,0,1,.16.07l.17.06.15.07a.34.34,0,0,1,.17.07l.3.18.31.21a1.06,1.06,0,0,1,.29.22l.27.26.25.29.24.34.22.37.22.42.18.46.13.51.08.56,0,.6v.44a1.19,1.19,0,0,0,0,.2l-.08.6a1.7,1.7,0,0,1-.16.55l-.19.52-.24.48-.24.42-.13.19-.15.2-.28.32,0,0,0,0,0,0,0,0,0,0,0,.05,0,0,0,0-.09.09-.09.05,0,.05,0,0,0,.05-.05,0-.29.2-.33.18-.37.18-.42.17-.47.12-.51.08-.58.06h-1.61l-.12-.05h-.37l-.13,0h-.32a.69.69,0,0,1-.22,0h-.21l-.19,0H207a.28.28,0,0,1-.15,0h-.68l-.1,0h-.65l0,0h-.17l0,0h-.07l0,0v-.05l0,0h0l0,0h.37l0,0h0l.1,0,.07-.05.05-.07.06-.1v-.06l0-.05v-.06l0-.07,0-.12,0-.15,0-.24a1.17,1.17,0,0,1,0-.29v-4.95Zm1.17,1.49v2.92a.31.31,0,0,0,0,.13v.3l0,0v.17l0,.09v.12a.13.13,0,0,0,0,.08v.1l0,.06,0,.06,0,0v0h0v0h0l.1.09.15.09.18.08.23.07.3.07.37.05a2.59,2.59,0,0,1,.44,0h1a1.62,1.62,0,0,0,.47-.07l.46-.1.44-.15.4-.18a1.87,1.87,0,0,0,.39-.22l.36-.27.31-.28.24-.25.21-.31.18-.34.15-.4.12-.41.1-.43.06-.41,0-.44v-.65a.75.75,0,0,1,0-.17,2.26,2.26,0,0,0-.05-.47l-.1-.44-.12-.4-.09-.18-.06-.18-.09-.17-.08-.17-.08-.15-.09-.15-.09-.14-.09-.12,0-.06-.06,0,0-.06,0-.05,0,0,0,0-.06-.09,0,0-.49-.46-.25-.19-.28-.18-.55-.27-.57-.19L210,271l-.59-.1-.61,0-.59,0h-.09l0,0h-.24l-.08,0h-.21l-.11,0h-.12l-.06,0,0,0,0,0,0,0,0,0v4.77Z" transform="translate(-65.26 -70)" style="fill: #fff;stroke: #fff;stroke-miterlimit: 10;stroke-width: 0.75px"/>
      <polygon points="159.03 206.79 159.03 207.32 159.03 207.78 159.03 208.22 159.03 208.62 159.03 208.99 159.07 209.31 159.07 209.6 159.07 209.84 159.09 209.99 159.11 210.11 159.14 210.24 159.2 210.35 159.25 210.45 159.35 210.52 159.46 210.57 159.62 210.6 159.64 210.63 159.7 210.63 159.76 210.63 159.83 210.63 159.9 210.64 159.94 210.65 160.02 210.65 160.08 210.65 160.13 210.65 160.18 210.65 160.22 210.65 160.25 210.65 160.27 210.65 160.29 210.67 160.31 210.67 160.33 210.68 160.34 210.7 160.34 210.71 160.36 210.72 160.36 210.74 160.36 210.76 160.34 210.76 160.3 210.81 160.27 210.81 160.23 210.81 160.19 210.81 160.13 210.81 160.05 210.81 160 210.81 159.91 210.81 159.86 210.81 159.8 210.81 159.74 210.81 159.69 210.81 159.63 210.81 159.58 210.81 159.52 210.81 159.47 210.81 159.41 210.81 159.3 210.81 159.2 210.81 159.1 210.81 159.02 210.81 158.89 210.76 158.78 210.76 158.68 210.76 158.6 210.76 158.53 210.76 158.47 210.76 158.42 210.76 158.35 210.76 158.29 210.76 158.22 210.76 158.14 210.76 158.06 210.76 157.96 210.76 157.86 210.81 157.81 210.81 157.75 210.81 157.72 210.81 157.68 210.81 157.62 210.81 157.54 210.81 157.46 210.81 157.37 210.81 157.32 210.81 157.23 210.81 157.21 210.81 157.16 210.81 157.11 210.81 157.05 210.81 157 210.81 156.96 210.81 156.91 210.81 156.88 210.81 156.84 210.79 156.83 210.75 156.83 210.72 156.86 210.69 156.87 210.67 156.89 210.67 156.92 210.65 156.94 210.65 156.99 210.65 157.04 210.65 157.07 210.65 157.1 210.64 157.13 210.64 157.16 210.64 157.19 210.64 157.22 210.63 157.25 210.63 157.27 210.63 157.3 210.63 157.33 210.61 157.34 210.61 157.36 210.6 157.37 210.6 157.47 210.57 157.54 210.52 157.6 210.45 157.66 210.35 157.67 210.29 157.7 210.24 157.7 210.18 157.73 210.11 157.76 209.99 157.8 209.84 157.8 209.6 157.8 209.31 157.8 209.16 157.85 208.99 157.85 208.81 157.85 208.62 157.85 208.43 157.85 208.22 157.85 208 157.85 207.78 157.85 207.56 157.85 207.32 157.85 207.08 157.85 206.83 157.85 204.35 157.85 203.67 157.85 203.07 157.85 202.61 157.85 202.28 157.85 202.15 157.85 202.01 157.85 201.9 157.85 201.79 157.85 201.69 157.85 201.6 157.8 201.5 157.8 201.42 157.8 201.4 157.8 201.37 157.8 201.21 157.8 201.07 157.75 200.94 157.71 200.83 157.64 200.76 157.56 200.69 157.46 200.64 157.36 200.6 157.33 200.6 157.33 200.58 157.3 200.58 157.27 200.58 157.27 200.57 157.25 200.57 157.19 200.57 157.14 200.55 157.1 200.55 157.06 200.55 157.02 200.55 156.97 200.54 156.94 200.54 156.92 200.54 156.87 200.54 156.83 200.53 156.83 200.5 156.83 200.46 156.83 200.42 156.87 200.37 156.9 200.37 156.94 200.37 156.98 200.37 157.04 200.37 157.09 200.37 157.15 200.37 157.22 200.37 157.3 200.37 157.34 200.37 157.37 200.37 157.46 200.37 157.52 200.37 157.61 200.37 157.66 200.37 157.75 200.37 157.8 200.37 157.89 200.37 157.98 200.42 158.08 200.42 158.16 200.42 158.25 200.42 158.32 200.42 158.37 200.42 158.44 200.42 158.5 200.42 158.55 200.42 158.62 200.42 158.71 200.42 158.8 200.42 158.89 200.42 159 200.37 159.05 200.37 159.11 200.37 159.16 200.37 159.23 200.37 159.29 200.37 159.37 200.37 159.46 200.37 159.54 200.37 159.58 200.37 159.61 200.37 159.65 200.37 159.68 200.37 159.73 200.37 159.78 200.37 159.8 200.37 159.86 200.37 159.9 200.37 159.94 200.37 159.97 200.37 160.01 200.42 160.01 200.43 160.01 200.46 160.01 200.47 160.01 200.5 160.01 200.53 159.98 200.53 159.94 200.54 159.91 200.54 159.9 200.54 159.87 200.54 159.86 200.54 159.83 200.54 159.8 200.54 159.76 200.56 159.73 200.56 159.69 200.58 159.62 200.58 159.58 200.58 159.42 200.62 159.32 200.68 159.22 200.75 159.17 200.83 159.11 200.94 159.09 201.07 159.06 201.21 159.04 201.38 159.04 201.4 159.04 201.42 159.01 201.6 159.03 201.79 159.03 202.01 159.03 202.28 159.03 202.61 159.03 203.07 159.03 203.67 159.03 204.39 159.03 204.35 159.03 206.79" style="fill: #fff;stroke: #fff;stroke-miterlimit: 10;stroke-width: 0.75px"/>
      <path d="M234,278.92v.43a1.46,1.46,0,0,0,0,.34l0,.27.06.2.07.15.1.12.1.09.14.05h.26l0,.06h.49v.07h0v.05h-.11l-.06.05h-.34l-.08-.05h-2.16l-.06.05h-.29l0-.05h-.12v0l0,0v-.05h.41l.07-.06h.16l.11-.05.09-.1.07-.14.06-.16,0-.23a.81.81,0,0,1,0-.29l0-.36v-8.92l0-.05,0-.06,0,0h.09l0,0,0,0,0,0,0,.05,0,0,0,.05h0l.06,0v.06l0,0,0,0,.05,0,.14.18.3.32.45.5.59.63.68.73.72.78.75.79.78.85,0,0,0,0v0l0,0,0,0,0,0,0,0v0l0,0,0,.05h0l0,0,0,0,0,0,0,0,0,0,0,.05,0,0,0,0,0,0,.43.47.42.46.39.44.39.43.34.4.32.3.21.25.18.18-.15-7.09,0-.28v-.26l0-.21,0-.17-.07-.12-.1-.1-.12-.08-.13-.06h-.54l-.05,0h-.15l0,0,0,0v0l0,0,0-.05h3l0,0,0,0v0l0,0,0,0,0,0h-.25l0,0h-.09a.32.32,0,0,0-.2.06l-.12.06-.08.1-.06.12,0,.17,0,.19v.53l0,1v7.84l0,.07,0,.07,0,0,0,0H242l-.05,0,0,0h0l0,0,0,0-.12-.08-.16-.16-.2-.2-.25-.26L241,280l-.18-.18-.27-.27-.35-.36-.4-.4-.43-.44-.44-.47-.46-.49,0,0,0,0,0,0,0,0,0-.05-.06-.07-.05-.06-.06-.07-.07-.05-.05-.06-.06,0,0-.07-.11-.11-.11-.11-.12-.13-.1-.12,0,0,0,0,0,0v0l-.6-.63-.55-.61-.53-.59-.51-.57-.48-.5-.38-.41-.28-.33-.19-.23v-.05Z" transform="translate(-65.26 -70)" style="fill: #fff;stroke: #fff;stroke-miterlimit: 10;stroke-width: 0.75px"/>
      <path d="M257.76,277.28v-.65l0-.22,0-.17-.07-.1-.12-.09-.14-.09-.2-.07h-.29l0,0h-.26v-.11l0,0,0,0h1.16l.1,0h.9l.12,0h.94l0,0,0,0h0v0h0v.06h-.21l0,0h0l0,0h-.12l-.17.05-.11.05-.1.07-.06.08-.06.11,0,.13v.33h0v.09h0v.06l0,.15v3.15l0,.09v.05l0,0,0,0h-.05v0l-.08,0-.07,0-.08,0-.09,0-.16.06-.16.05-.07,0H258l-.08,0h-.24l-.06,0,0,0h-.06l-.08,0-.11,0-.11,0h-.11l-.1,0-.21,0-.21,0-.2,0h-1.15l-.18-.05h-.17l-.2,0-.19,0-.21,0-.19,0-.21,0-.21-.05a1.72,1.72,0,0,1-.38-.07l-.21-.07a1.56,1.56,0,0,1-.24-.1l-.21-.07-.2-.1-.2-.1-.19-.12-.21-.13-.19-.13-.2-.14-.18-.17-.32-.3-.29-.38-.28-.41-.26-.5-.22-.54-.15-.57-.1-.59,0-.65,0-.8.13-.74.21-.68a4.21,4.21,0,0,1,.31-.6l.35-.54.19-.26.21-.21.42-.41a2.09,2.09,0,0,1,.45-.33l.06,0,.08,0,.06,0,.08,0,.14-.07.14-.07.14-.05.13-.07.06,0,.08,0H253l.11,0,.08,0,.06,0,.08,0,.11,0,.08,0,.06,0,.08,0,.1,0a.32.32,0,0,0,.16,0,.37.37,0,0,0,.17,0h.17a.32.32,0,0,0,.16,0h.32a.67.67,0,0,0,.32-.06h1.06l.07,0h.25l.07,0h.08l.06,0h.24l.05,0h.22l.06,0h.14l.05,0h.13l.06,0h.07l.06,0h.05l.06,0h.08l.07,0H258l0,0h.26l.1,0h.43l0,0,.07,0,0,0h0v0h0v.16l0,.1v.28l0,.12v.45l0,.18v.89l0,.05,0,0h-.06l0,0,0-.06v-.12l0-.06v-.07l0-.07v-.09a.22.22,0,0,0,0-.09v-.11l0-.05v-.06l0,0V272l0,0,0-.06,0,0v0l0,0v0h0v0h0l0,0h0l0,0h0l0,0h0l0,0-.09-.1-.1-.09-.12-.09-.14-.08-.32-.15-.36-.15-.42-.13-.47-.09-.52-.06-.58,0-.35,0-.34,0a1.13,1.13,0,0,0-.36.06l-.36,0-.39.12a.59.59,0,0,0-.19.05l-.2.1-.39.22-.38.28-.29.27-.27.31-.23.37-.2.43-.18.47-.11.53-.08.55v1.08l0,.44.08.43.13.4.14.37.15.35.15.32.17.26.05.14.09.11.08.11.08.1,0,.05.05,0,0,.05,0,0,.07.08.07.06.2.21a2.3,2.3,0,0,0,.2.16l.43.32.45.26.47.19.45.16.47.09.47.07.5,0h.39l.08,0h.09l.08,0h.32l.07,0H257l.07,0h.06l.07,0h.05l.06,0,.09,0,.1,0,.05,0,.06,0,0,0,0,0,0,0v-.06a.16.16,0,0,1,0-.08v-.07l0-.1,0,0Z" transform="translate(-65.26 -70)" style="fill: #fff;stroke: #fff;stroke-miterlimit: 10;stroke-width: 0.75px"/>
      <rect x="0.5" y="206.39" width="37.8" height="0.38" style="fill: #fff;stroke: #fff;stroke-miterlimit: 10"/>
      <rect x="198.85" y="206.39" width="36.96" height="0.38" style="fill: #fff;stroke: #fff;stroke-miterlimit: 10"/>
      <circle cx="158.24" cy="35.5" r="35.5" style="fill: #ffc700"/>
      <path d="M97.68,120.21l-.61-.14v112.1h2V120.45a12.13,12.13,0,0,1-1.34-.24" transform="translate(-65.26 -70)" style="fill: #fff"/>
      <rect x="32.54" y="69.33" width="35.48" height="1.94" style="fill: #fff"/>
      <rect x="32.54" y="98.98" width="35.48" height="1.94" style="fill: #fff"/>
      <rect x="32.54" y="120.61" width="35.48" height="1.94" style="fill: #fff"/>
      <path d="M132.55,126.37v105.8h1.95V126.58a6.78,6.78,0,0,1-1.95-.21" transform="translate(-65.26 -70)" style="fill: #fff"/>
      <path d="M118.93,123.65a7.18,7.18,0,0,1-2.25-.48L97.8,139.07v2l33.93,28.78L97.8,190.56v1.55l34.73,23.55,1-1.47v-.05L100,191.37l33.56-20.5V169l-34.07-28.9Z" transform="translate(-65.26 -70)" style="fill: #fff"/>
      <path d="M223.63,140.87l-1.65-.13v91.43h2V140.89l-.3,0" transform="translate(-65.26 -70)" style="fill: #fff"/>
      <path d="M225.84,141.13l-.44-.08-.18,0-.25,0-.45,0-.89-.07-.92-.07v.47h3.71l-.58-.14" transform="translate(-65.26 -70)" style="fill: #fff"/>
      <rect x="157.45" y="98.98" width="35.48" height="1.94" style="fill: #fff"/>
      <rect x="157.45" y="120.61" width="35.48" height="1.94" style="fill: #fff"/>
      <path d="M258.66,147.67a2.54,2.54,0,0,1-1.2-.3v84.8h2v-84.5Z" transform="translate(-65.26 -70)" style="fill: #fff"/>
      <path d="M225.4,141.05l-.18,0-.25,0-.45,0-.89-.07-.92-.07v.25l33.93,28.78-33.93,20.73v1.55l34.73,23.55,1-1.47v-.05l-33.56-22.77,33.56-20.5V169l-32.87-27.88-.17,0" transform="translate(-65.26 -70)" style="fill: #fff"/>
      <rect x="131.48" y="69.3" width="1.94" height="113" transform="translate(-79.09 165.21) rotate(-80.32)" style="fill: #fff"/>
      <rect x="133.44" y="57.8" width="1.94" height="113" transform="matrix(0.17, -0.99, 0.99, 0.17, -66.12, 157.58)" style="fill: #fff"/>
      <polygon points="16.09 34.25 14.47 35.08 20.89 47.58 23.07 47.95 35.01 39.42 33.95 37.94 22.27 46.28 16.09 34.25" style="fill: #fff"/>
      <polygon points="35.68 37.59 34.05 38.42 40.48 50.92 42.65 51.29 54.6 42.76 53.54 41.28 41.86 49.62 35.68 37.59" style="fill: #fff"/>
      <polygon points="55.26 40.93 53.64 41.76 60.06 54.26 62.24 54.63 74.18 46.1 73.12 44.62 61.44 52.96 55.26 40.93" style="fill: #fff"/>
      <polygon points="74.84 44.27 73.22 45.1 79.64 57.6 81.82 57.97 93.76 49.44 92.7 47.96 81.02 56.3 74.84 44.27" style="fill: #fff"/>
      <polygon points="94.42 47.61 92.8 48.44 99.22 60.94 101.4 61.31 113.34 52.78 112.29 51.3 100.6 59.64 94.42 47.61" style="fill: #fff"/>
      <path d="M186.26,134.47l0,.05-7-13.57-1.62.83,6.42,12.5,2.18.37.08-.06a.75.75,0,0,0-.07-.12" transform="translate(-65.26 -70)" style="fill: #fff"/>
      <rect x="229.46" y="86.01" width="1.94" height="113" transform="translate(-14.06 275.7) rotate(-80.32)" style="fill: #fff"/>
      <rect x="231.42" y="74.51" width="1.94" height="113" transform="translate(-1.09 268.07) rotate(-80.32)" style="fill: #fff"/>
      <polygon points="114.07 50.96 112.45 51.8 118.87 64.29 121.05 64.66 132.99 56.13 131.93 54.65 120.25 62.99 114.07 50.96" style="fill: #fff"/>
      <polygon points="133.66 54.3 132.03 55.13 138.45 67.63 140.63 68 152.57 59.48 151.52 57.99 139.84 66.33 133.66 54.3" style="fill: #fff"/>
      <polygon points="153.24 57.64 151.62 58.48 158.04 70.97 160.22 71.34 172.16 62.81 171.1 61.33 159.42 69.67 153.24 57.64" style="fill: #fff"/>
      <polygon points="172.82 60.98 171.2 61.81 177.62 74.31 179.8 74.68 191.74 66.16 190.68 64.67 179 73.01 172.82 60.98" style="fill: #fff"/>
      <polygon points="192.4 64.32 190.78 65.16 197.2 77.65 199.38 78.02 211.32 69.5 210.26 68.01 198.58 76.35 192.4 64.32" style="fill: #fff"/>
      <path d="M284.24,151.18l0,0-7-13.57-1.62.83,6.42,12.5,2.18.37.08-.05c0-.05-.05-.09-.07-.13" transform="translate(-65.26 -70)" style="fill: #fff"/>
      <polygon points="93.18 108.31 115.55 80.13 114.12 79 90.86 108.31 93.18 108.31" style="fill: #fff"/>
      <path d="M203.13,178.31l-22.41-28.24H179.6a2.33,2.33,0,0,1-.4,1l21.6,27.22Z" transform="translate(-65.26 -70)" style="fill: #fff"/>
      <rect x="84.65" y="107.4" width="59.41" height="1.64" style="fill: #fff"/>
      <rect x="88.03" y="102.75" width="1.64" height="59.41" style="fill: #fff"/>
      <rect x="106.25" y="138.25" width="1.64" height="23.92" style="fill: #fff"/>
      <rect x="119.49" y="138.25" width="1.64" height="23.92" style="fill: #fff"/>
      <rect x="139.54" y="102.75" width="1.64" height="59.41" style="fill: #fff"/>
      <rect x="107.06" y="138.25" width="13.61" height="1.54" style="fill: #fff"/>
      <path d="M232.79,129.26l-5.31,2.26-3.68,1.57L224,122.6h0l.08-.21-2.88-7.1.32-6.64-1.92-2L218,105.07l-1.46-1.49.19-.18.68-.64.13-.11,0-.38-.27-3.53c.72-.27,1.15-.48,1.08-.57-.29-.35-.25-.71-.75-.67a4.43,4.43,0,0,0-.33-1l0-.07A4.3,4.3,0,0,0,212.79,94a3.91,3.91,0,0,0-3.67,3.89c0,.14,0,.28,0,.43a6.62,6.62,0,0,0,.16,1.19,2,2,0,0,0-.91.45c-.18.27-.74,1.42-.1,1.34.17,0,1-.24,2.15-.54l.3.56v0l-.61,2,1.2.63.94,2.22,1.53-.1.46-.43.72,1h0l-.43,1.11a12.14,12.14,0,0,0-.74,1.47l-.6-.48s-2.83,7.38-2.83,7.38L203,119.83l-2.1.48-1.54,2.16,3.09,1.62-.7,1.26,3.68,1.43,1.22-2.2.31-1.37,7.39-3.59L215,118l.44,1.48.79,2.7-9.67,3.55,1,7.83v0l.6,4.37-1,.51a2.49,2.49,0,0,1,1,.71l3.66-.24c-.08-1.14-.2-2.9-.32-4.7,0-.43,0-.38-.05-.8l0-.49-3.91.27,3.91-.27,0,.49c0-.35,0-.68-.06-1-.06-.95-.11-1.84-.15-2.57s0-.83,0-.77,3.71-.8,6.84-1.52l1.78,11.47s4.92-2.37,8.14-4.07a16.45,16.45,0,0,0,2.71-1.59c.12.49,1.15,3.57,1.15,3.57l2,1.15ZM204,122.74l.35-.49.46-1.33-.13-.08,6.63-2.35-5.92,3.82Z" transform="translate(-65.26 -70)" style="fill: #fff"/>
      <g style="mix-blend-mode: color-burn">
        <g>
          <rect x="33.58" y="80.85" width="1.22" height="1.38" style="fill: #fff"/>
          <g style="clip-path: url(#clip-path)">
            <polygon points="34.5 82.2 34.8 82.22 34.8 80.85 34.51 80.85 34.51 81.28 33.58 81.28 33.58 81.77 34.5 81.75 34.5 82.2" style="fill: #fff"/>
          </g>
        </g>
      </g>
      <path d="M79.07,252.12v5.71l.11.83V260l0,.4.07.32.08.32.14.29.15.25.25.18.29.15.4.07.07.07h.48l.18,0,.11,0h.87l0,0h.08l0,0,0,0v0l0,0v.11h0l-.11.11h-3.3l-.33-.11h-2.4l-.25.11H73.57l-.1-.05,0-.09v-.09l.07-.09,0,0h0l.08,0H74l.07,0h.22l.07,0h.22l.07,0h0l0,0h0l.25-.07.18-.15.14-.18.14-.25,0-.14.07-.15v-.14l.08-.18.09-.32.08-.4v-1.76l.15-.43V236.89l-5.34.08-.43.1h-.36l-.36.08-.29,0-.29.07h-.29c-.12,0-.19.05-.21.08l-.22,0a.6.6,0,0,0-.4.15l-.32.18-.29.25-.22.28-.14.26-.11.17-.11.18-.07.11-.07.11v.22l-.15.14v.11l-.07.07v0h0l-.07.08h-.26l0-.11v-.65l.08-.25,0-.29.08-.28.08-.29a.82.82,0,0,1,.08-.32v-.08l0,0v-.18l.07-.15v-.14l.08-.14v-.15l0-.1v-.15l.07-.14,0-.22,0-.18.07-.21,0-.07v-.16l.08-.07v-.08l0-.07v0l.07-.08L67,235h.32l.07.08.18.09.18.08.22.09.21.09h.47l.11.07h.64l.4.07h.86l.25,0h.57L85,235.46l.14.11h.72l.29,0h.72a.47.47,0,0,0,.21-.07h0l.07,0h.18l.07,0h.11l.18,0H88l.18-.07.11,0h.11l.07,0h.15l0,0,0,0v.14l0,.07V236l0,.1v1.73l-.07.36v1.47l0,.11v.11l0,.07-.07.07-.07,0h-.11l-.14,0-.07-.14v-.44l0-.5,0-.11c0-.11,0-.19-.07-.21l-.07-.14-.11-.18L87.4,238l-.36-.28-.54-.26-.75-.18-1-.1h-.43c-.12,0-.37,0-.76-.08L79,236.89Z" transform="translate(-65.26 -70)" style="fill: #ffa700"/>
      <path d="M99.76,254.64l6.65-18.4.11-.21.11-.29,0-.11.08-.1.1-.17v-.13l.08-.11.1-.06.08-.1h.21v0l.07.07.15.15.07.1.07.18a.48.48,0,0,0,.07.22l.11.25.14.29.18.5.33.86.46,1.26.65,1.58.72,1.83.71,1.91.78,2,.77,2.06.54,1.43.54,1.37.25.72.29.64.22.65.28.64.47,1.3.47,1.11.39,1,.36.86.47,1.11.47.9.39.64.39.47.36.34.36.26.32.19.33.11.14.07h1.44l0,.15h.15l0,0v.09l-.07.08h-.14l-.11.15h-4.71l-.43-.15h-2v-.14l.07-.07,0-.15h.26v0l.07-.07.07-.15,0-.11v-.39l0,0v-.07l0-.07L111,252.16l-.07,0v0l0,0,0,0h-.07l0,0h-.07l-7.73-.11-.07.11-.11,0,0,0-.07.07-.07.11-2.16,6.28-.14.44-.1.36-.08.33L100,260l-.07.33v.29l0,.29v.47l.07.18.11.18.14.11.14.11a.92.92,0,0,1,.22.07h1.11l.07.15h.08l.07.11h0l0,0v.05h-.22l-.07.15H99.9c-.15-.05-.23-.1-.25-.15h-2.3l-.25.15H94.37l-.11-.15H94l0-.1h0l.07-.11h.11l.07-.15h.86l.61-.1.54-.25.47-.32.36-.43.29-.46.28-.53.25-.57.29-.68v-.1Zm10.42-4,0,.11h.08l0-.1,0,0v-.12l-3.42-9.91-.07-.07-.08-.11-.08-.07-.11,0,0,0,0,0-.08.1,0,.11,0,.07-3.15,9.66v.15l0,.07v.08l0,0,0,0h.07v-.11Z" transform="translate(-65.26 -70)" style="fill: #ffa700"/>
      <polygon points="69.22 182.12 69.22 183.49 69.22 184.67 69.22 185.82 69.22 186.86 69.22 187.83 69.32 188.66 69.32 189.41 69.32 190.02 69.36 190.42 69.43 190.74 69.51 191.06 69.65 191.35 69.8 191.6 70.05 191.78 70.34 191.93 70.74 192 70.81 192.07 70.96 192.07 71.1 192.07 71.28 192.07 71.47 192.11 71.58 192.14 71.79 192.14 71.94 192.14 72.08 192.14 72.19 192.14 72.3 192.14 72.37 192.14 72.45 192.14 72.48 192.18 72.56 192.18 72.59 192.21 72.63 192.25 72.63 192.29 72.66 192.32 72.66 192.36 72.66 192.43 72.63 192.43 72.52 192.54 72.45 192.54 72.34 192.54 72.23 192.54 72.08 192.54 71.87 192.54 71.72 192.54 71.5 192.54 71.36 192.54 71.22 192.54 71.07 192.54 70.93 192.54 70.78 192.54 70.64 192.54 70.49 192.54 70.35 192.54 70.2 192.54 69.91 192.54 69.66 192.54 69.41 192.54 69.19 192.54 68.86 192.43 68.57 192.43 68.32 192.43 68.1 192.43 67.92 192.43 67.78 192.43 67.63 192.43 67.45 192.43 67.31 192.43 67.13 192.43 66.91 192.43 66.69 192.43 66.44 192.43 66.18 192.54 66.04 192.54 65.89 192.54 65.82 192.54 65.71 192.54 65.57 192.54 65.35 192.54 65.14 192.54 64.92 192.54 64.77 192.54 64.56 192.54 64.48 192.54 64.38 192.54 64.23 192.54 64.09 192.54 63.94 192.54 63.83 192.54 63.72 192.54 63.65 192.54 63.54 192.49 63.51 192.4 63.51 192.31 63.58 192.22 63.62 192.18 63.66 192.18 63.73 192.14 63.8 192.14 63.91 192.14 64.06 192.14 64.14 192.14 64.21 192.11 64.28 192.11 64.36 192.11 64.43 192.11 64.51 192.07 64.58 192.07 64.66 192.07 64.73 192.07 64.8 192.03 64.84 192.03 64.88 192 64.92 192 65.17 191.93 65.36 191.78 65.51 191.6 65.66 191.35 65.69 191.21 65.77 191.06 65.77 190.92 65.85 190.74 65.94 190.42 66.02 190.02 66.02 189.41 66.02 188.66 66.02 188.26 66.16 187.83 66.16 187.37 66.16 186.86 66.16 186.36 66.16 185.82 66.16 185.25 66.16 184.67 66.16 184.1 66.16 183.49 66.16 182.87 66.16 182.22 66.16 175.77 66.16 174 66.16 172.45 66.16 171.26 66.16 170.4 66.16 170.07 66.16 169.71 66.16 169.43 66.16 169.14 66.16 168.88 66.16 168.63 66.02 168.38 66.02 168.16 66.02 168.13 66.02 168.06 66.02 167.62 66.02 167.26 65.91 166.94 65.8 166.65 65.61 166.47 65.39 166.29 65.13 166.14 64.87 166.04 64.8 166.04 64.8 166 64.73 166 64.66 166 64.66 165.96 64.58 165.96 64.43 165.96 64.32 165.93 64.21 165.93 64.1 165.93 63.99 165.93 63.88 165.89 63.8 165.89 63.73 165.89 63.62 165.89 63.51 165.85 63.51 165.78 63.51 165.68 63.51 165.57 63.61 165.46 63.69 165.46 63.8 165.46 63.9 165.46 64.05 165.46 64.19 165.46 64.33 165.46 64.52 165.46 64.73 165.46 64.84 165.46 64.91 165.46 65.13 165.46 65.31 165.46 65.53 165.46 65.67 165.46 65.89 165.46 66.03 165.46 66.25 165.46 66.5 165.57 66.75 165.57 66.97 165.57 67.19 165.57 67.36 165.57 67.51 165.57 67.69 165.57 67.83 165.57 67.98 165.57 68.16 165.57 68.38 165.57 68.63 165.57 68.84 165.57 69.13 165.46 69.28 165.46 69.42 165.46 69.57 165.46 69.75 165.46 69.89 165.46 70.11 165.46 70.32 165.46 70.54 165.46 70.65 165.46 70.72 165.46 70.83 165.46 70.9 165.46 71.04 165.46 71.15 165.46 71.22 165.46 71.37 165.46 71.48 165.46 71.58 165.46 71.66 165.46 71.77 165.57 71.77 165.6 71.77 165.68 71.77 165.71 71.77 165.78 71.77 165.85 71.68 165.85 71.59 165.89 71.52 165.89 71.48 165.89 71.41 165.89 71.37 165.89 71.3 165.89 71.23 165.89 71.12 165.93 71.05 165.93 70.94 166 70.76 166 70.65 166 70.22 166.11 69.97 166.25 69.72 166.43 69.58 166.65 69.43 166.94 69.36 167.26 69.29 167.62 69.25 168.06 69.25 168.13 69.25 168.16 69.18 168.63 69.22 169.14 69.22 169.72 69.22 170.4 69.22 171.27 69.22 172.46 69.22 174.01 69.22 175.88 69.22 175.77 69.22 182.12" style="fill: #ffa700"/>
      <path d="M155.35,252.23v4.86a4,4,0,0,0,.1,1.05,3.77,3.77,0,0,0,.08.87l.14.68.18.51.25.32.25.22.29.18.36.14.44.11.5.11.69,0,.82,0h1.66l.69,0,.61,0a2,2,0,0,0,.61-.07l.54-.11.47-.18.43-.26.36-.4.11-.11L165,260l.07-.15.08-.11,0-.07.07-.15.08-.22.07-.14v-.29l.18-.08v-.19l.07-.12V258l.07-.08v-.14l.09-.11.09,0h.17l0,0v.18l.1.07v.39l-.1.18v1.08l-.11.33v.32l-.07.11v.21l-.08.22V261l0,.1a1,1,0,0,1-.07.26v.17l-.08.15v.18l0,.07V262l-.07.15,0,.11-.07.08-.07.07-.15.08-.14.07-.25,0-.36.07H160l-.71-.1h-1.84a2.1,2.1,0,0,1-.57-.07h-1.44l-.43,0h-1.58l-.14,0h-1.4l0,0h-1.15l-.1,0h-.47l-.11,0h-.11l-.07,0-.11,0,0-.07v-.07l.07-.08,0,0h0l.07,0h.4l.07,0h.22l.07,0h.21l.08,0h0l0,0h0l.25-.07.18-.14.15-.18.14-.24,0-.14.07-.14V261l.07-.18.07-.32.07-.38,0-.6a1.71,1.71,0,0,1,.14-.74V238.07a1,1,0,0,0-.07-.44l0-.36-.11-.33-.14-.29-.19-.18-.29-.18-.33-.14-.41-.15h-.07l-.07,0h-.26l-.07,0H150l-.08,0h-.55l-.11,0-.07-.08v-.1l0-.11.1-.11H151l.07,0h1.22l.25.08h2.51a1.28,1.28,0,0,0,.33-.08h1.69l.21,0h.5l.11,0H158l.07,0,.11.11,0,0v.11l0,.07-.07.08h0l0,0h-.29l-.11,0h-.36l-.14,0H157l-.07,0h-.15l-.39.11-.29.14-.25.18-.14.22-.15.29-.07.32-.07.36,0,.43v.11l-.07.47,0,.5v13Z" transform="translate(-65.26 -70)" style="fill: #ffa700"/>
      <path d="M174.52,248.53l0-.47,0-.5a9740232779842.84,9740232779842.84,0,0,1,.14-1.08l.14-.53.15-.54.14-.54a15.52,15.52,0,0,1,.68-1.8l1-1.76a14.62,14.62,0,0,1,1.22-1.65l1.55-1.62a11,11,0,0,1,1.81-1.34,10,10,0,0,1,2.08-.95,15.48,15.48,0,0,1,2.43-.58,17.55,17.55,0,0,1,2.76-.21,16.36,16.36,0,0,1,2.93.23,17.68,17.68,0,0,1,2.64.68,11.62,11.62,0,0,1,2.41,1.13,13.05,13.05,0,0,1,2.15,1.54,11.58,11.58,0,0,1,1.76,2,11,11,0,0,1,1.22,2.22,12.92,12.92,0,0,1,.79,2.72q.1.69.18,1.44c.05.5.07,1,.07,1.54a15.1,15.1,0,0,1-.25,2.91,11.31,11.31,0,0,1-.75,2.69,9.8,9.8,0,0,1-1.22,2.47,13.83,13.83,0,0,1-.76,1.17,8.3,8.3,0,0,1-.93,1.09,13.3,13.3,0,0,1-2.16,1.9,14.56,14.56,0,0,1-2.44,1.33c-.43.14-.87.28-1.33.39-.21.05-.76.17-1.65.34a14.42,14.42,0,0,1-2.87.27,17.37,17.37,0,0,1-2.93-.21l-1.49-.27c-.19,0-.6-.15-1.22-.34a13.63,13.63,0,0,1-2.23-1.07,9.91,9.91,0,0,1-1.83-1.56c-.53-.59-1-1.2-1.51-1.85a21.83,21.83,0,0,1-1.15-1.89l-.82-2c-.1-.31-.2-.65-.29-1s-.18-.73-.25-1.09l-.07-.15v-.35l0-.18-.07-.15v-.68l0-.14v-1.51Zm3.59,2.48a21.06,21.06,0,0,0,.63,2.64,12.06,12.06,0,0,0,1,2.39,12.93,12.93,0,0,0,1.44,2A12.8,12.8,0,0,0,183,259.7c.33.22.66.42,1,.61l1,.54c.39.17.81.32,1.26.47l.86.25a12.27,12.27,0,0,0,2.34.21h.39l.47,0,.5,0,.54-.11.54-.1a1.87,1.87,0,0,0,.54-.18,1.87,1.87,0,0,0,.54-.18l.57-.26a6.57,6.57,0,0,0,1-.55,5.79,5.79,0,0,0,1-.85l1-1A5.23,5.23,0,0,0,197,258l.52-.7a11.8,11.8,0,0,0,.79-1.44l.58-1.8a18.7,18.7,0,0,0,.32-2.11l.14-2.45a18.38,18.38,0,0,0-.16-2.67c-.1-.73-.21-1.31-.3-1.73s-.22-.85-.36-1.31a11.88,11.88,0,0,0-1-2.24,12.34,12.34,0,0,0-1.48-1.92c-.21-.22-.49-.47-.82-.76l-.9-.71a10.06,10.06,0,0,0-1.87-1.08,10.38,10.38,0,0,0-1.95-.65,10,10,0,0,0-2.07-.21q-.54,0-1.08,0c-.36,0-.8.09-1.33.18a8.82,8.82,0,0,0-1.72.54,7.71,7.71,0,0,0-1.8.93c-.31.22-.57.41-.78.58s-.39.33-.79.72a8.38,8.38,0,0,0-1.28,1.61,12.81,12.81,0,0,0-1,2.09,18.07,18.07,0,0,0-.48,2.17c-.11.71-.18,1.22-.2,1.54s0,.81,0,1.46v-.11c0,.53,0,1.05,0,1.56a15.25,15.25,0,0,0,.14,1.53" transform="translate(-65.26 -70)" style="fill: #ffa700"/>
      <path d="M216.54,245.84v-7.15l-.14-.26v-1.14l-.11-.33-.15-.29-.18-.18-.29-.19-.33-.14-.4-.15h-.07l-.07,0h-.26l-.07,0h-.26l-.07,0h-.54l-.11,0-.07-.07v-.11l0-.11.11-.11h3l.25.11h2.73l.36-.11h4a1.41,1.41,0,0,1,.65.11,2,2,0,0,1,.64.07,1.51,1.51,0,0,1,.65.14l.65.14.61.18.61.26.57.32.61.36.11.07.11.11.11.07.11.11.1.11.11.14.07.07.15.11.07.07.25.4.29.39.21.47.29.46.22.54.14.54.11.61,0,.61v.61l0,.11v.07l-.08.51a1,1,0,0,1-.07.43l-.1.46-.11.43-.18.51a1.35,1.35,0,0,1-.18.43l-.22.5-.21.43-.61.94-.72.93-.43.5-.43.47-.51.5-.5.5,1.08,1.41,1,1.32,1,1.26,1,1.19.89,1.14.87,1.05.82,1,.83.86.68.72.68.57.61.43.61.29.51.25.46.14.43.11a1.06,1.06,0,0,1,.4.07l.11,0h.14l.11,0,.21,0h.9l0,0h.07l0,0,.08.09,0,.05v0l-.07.09-.11.05h-5.1l-.14-.11h-.29l-.43,0-.36-.07-.36-.14-.32-.18h0v0h0l-.18-.07-.15-.11-.14-.11-.14-.1-.15-.11-.14-.11-.14-.11-.15-.14L232,261l-.22-.22-.21-.21-.18-.26-.22-.21-.21-.25-.22-.25-.21-.29-.47-.58-.47-.61-.29-.32-.21-.36-.29-.36-.25-.36-.07-.07-.11-.07-.07-.11-.07-.11-.08-.1-.07-.11L228,256l-.07-.11-.07-.07-.11-.14-.11-.15-.11-.14,0-.11-.47-.57-.43-.58-.22-.28-.21-.29-.22-.25-.18-.29-.36-.5-.32-.47a1.12,1.12,0,0,0-.29-.36l-.21-.32h0v0h0v0h0v0h-.07v0h-.07v0h-.11v0h-.11l-4.42-.18-.07.11-.1,0,0,0,0,.07v6.61l0,.83a2.87,2.87,0,0,0,.07.75,1.92,1.92,0,0,0,.07.61l0,.4.07.32.07.32.15.29.14.25.25.18.29.15.39.07.08.07h.46l.18,0,.11,0h.86l0,0h.07l0,0,0,0v0l0,0v.11h0l-.11,0-.07,0h-.11l-.1,0H221l-.14,0h-1.44l-.32-.07h-2.27l-.25.07h-.9l-.17,0h-1.15l-.11,0h-.11l-.07,0-.11,0,0-.07v-.07l.08-.08,0,0h0l.07,0h.4l.07,0h.21l.07,0h.22l.07,0h0l0,0h0l.25-.07.18-.15.14-.18.15-.25,0-.14.08-.14v-.15l.07-.18.07-.32.07-.39,0-.61a3.07,3.07,0,0,1,.07-.75v-.4l0-.43v-2.58l0-.57v-8.85Zm2.87,3.09v.32l0,.11.14.1.29.11.32.11.36.11.47.07.5.07.51.07.53,0h1.58l.18,0h.15l.18-.07h.14a.61.61,0,0,0,.22-.07l.14,0c.12,0,.19,0,.21-.07l.15-.07a.47.47,0,0,0,.21-.07l.11,0,.11-.07.07-.07.11-.07.43-.36.43-.47.36-.57.36-.65.29-.75.18-.83.1-.9.08-1-.11-1.58-.33-1.4-.53-1.22q-.25-.47-.36-.63a5.33,5.33,0,0,0-.36-.45l-.94-.79-1.07-.61-1.22-.36-1.33-.14h-.4l-.21,0H221l-.18,0h-.15l-.32.07h-.25a.92.92,0,0,0-.22.07h-.14l-.07.07-.14,0-.08.11v11.89Z" transform="translate(-65.26 -70)" style="fill: #ffa700"/>
      <path d="M248.68,245.8V238a.89.89,0,0,0-.07-.41l0-.35-.11-.31-.15-.28-.18-.18-.29-.17-.33-.14-.41-.14H247l-.08,0h-.25l-.08,0h-.25l-.08,0h-.55l-.11,0-.07-.07v-.1l0-.11.11-.11.07,0h.11l.11,0h1.43l.07,0h1.22l.25.08h8.67l.21,0h1.22a.61.61,0,0,0,.22-.07l.18,0h.34l.16-.07h0l.07,0v0h.14l.07-.07h.33v.64l-.11.15v.28l0,.11,0,.15,0,.07V237l0,.07v.32l0,.11v.14l-.07.26v.64l0,.12V239l0,.1v.31l0,.08v.12l-.07.09v.08l0,.07-.07.07,0,0h-.1l-.15,0-.07-.14v-.36l0-.11V239l-.1-.11v-.55l-.08-.18-.07-.11-.07-.07-.07-.11-.19-.18-.18-.18-.29-.14-.43-.15-.25,0-.29-.07h-.33l-.33-.08h-.14l-.22,0h-1.16l-.15,0h-1.45l-.18,0h-1.7l-.07,0-.08,0v10.55h5.77l.18-.07H258l.29-.07.25,0,.22,0,.15-.07.18-.07.14-.08.18-.14.08-.11v-.07l.07-.07.07-.07,0,0h0l.07-.07h0l0,0h.07v0h0l0,0,0,0v.07l0,0v.14l0,.07V247l0,.15-.07.18v.35l0,.11V248l0,.07v.07l0,.07v.32l0,.11v.15l-.07.14v.83l-.07.25v1.4l0,.11v.07l0,.07-.07.07-.08.07h-.25l0-.1v-.44l0-.1v-.29l0-.14,0-.22,0-.22-.07-.07V250h0V250l-.08-.07-.1-.15,0-.11-.07-.07-.07-.07-.07-.07-.11-.07-.22-.11-.29-.11-.32-.07-.39-.07h-.72l-.33-.07h-.57l-.14,0H254l-.21,0h-1.3l-.14,0h-.43l-.07,0h0l0,0v0l0,0v9.41l0,.86a2.78,2.78,0,0,0,.18.69l.26.5.32.36.47.25.75.14.93.11,1.22,0h1.44l.29,0h.21l.25,0h.22l.22-.07.21,0a.56.56,0,0,0,.22-.08l.21-.07.18-.07.33-.14.28-.22.25-.21.22-.29.14-.32.18-.4c0-.12.05-.19.08-.21l.07-.26,0-.25.07-.28,0-.15v-.11l.07-.14.07-.11.08,0h.14l0,0,.07.11V258l0,.07v.33l0,.14v.22l0,.14-.07.4v.28l0,.29,0,.29v.18l0,.1v.11l0,.11v.18l-.08.21v.15l0,.11-.07.25v.18L261,262l0,.14-.07.15-.07.07-.15.11-.14.07-.25,0-.29,0h-.22l-.18,0h-2.4l-.47,0H255.5l-.71-.07H253l-.54-.07h-1.22l-.32,0h-1l-.15,0h-1.36l-.07,0h-1.22l-.11,0h-.43l-.11,0h-.11l-.07,0-.11,0,0-.07v-.07l.07-.08,0,0h0l.07,0h.4l.07,0H247l.08,0h.21l.07,0h0l0,0h0l.25-.07.18-.15.15-.18.14-.25,0-.14.08-.15v-.14l.07-.18.07-.32.07-.4,0-.61a3.07,3.07,0,0,1,.07-.75v-.4l0-.43v-2.58l0-.58V245.8Z" transform="translate(-65.26 -70)" style="fill: #ffa700"/>
      <path d="M275.65,245.8v-7.11l-.14-.26v-1.14l-.11-.33-.15-.29-.18-.18-.29-.19-.33-.14-.4-.15H274l-.07,0h-.26l-.07,0h-.25l-.08,0h-.54l-.11,0-.07-.07v-.11l0-.11.11-.11h3l.25.11h2.66l.36-.11h7.14a4.8,4.8,0,0,1,.94.07l1,.11,1,.18,1,.18.43.11.43.14.4.15.43.14a1.35,1.35,0,0,1,.43.18l.43.15.39.18a1.26,1.26,0,0,1,.43.18l.79.47.79.54a3.72,3.72,0,0,1,.76.58l.72.68.64.76.61.87.58,1,.57,1.08.47,1.2.32,1.33.22,1.45.07,1.55v1.15a2.77,2.77,0,0,0-.07.51l-.22,1.55a5,5,0,0,1-.39,1.45l-.51,1.33-.61,1.26-.64,1.09c-.1.14-.21.3-.33.49a6.41,6.41,0,0,1-.39.52l-.72.83L296,259l-.07.07-.11.11-.07.07-.07.08-.08.1-.1.11-.08.07-.25.22-.21.15-.11.1-.11.08-.14.1-.11.08-.75.5-.87.47-1,.47-1.08.43-1.22.33-1.33.22-1.51.14h-4.17l-.32-.14h-1l-.32-.08h-.83a1.76,1.76,0,0,1-.57-.07H279l-.5-.07h-.4a.82.82,0,0,1-.39-.07H276l-.26.07H274l-.11,0h-.43l-.11,0h-.11l-.07,0-.11,0,0-.07v-.07l.07-.08,0,0h0l.07,0h.4l.07,0H274l.08,0h.21l.07,0h0l0,0h0l.25-.07.18-.15.15-.18.14-.25,0-.14.07-.15v-.14l.07-.18.07-.32.07-.4,0-.61a3.07,3.07,0,0,1,.07-.75v-.4l0-.43v-2.58l0-.58V245.8Zm3,3.88v7.58c0,.17,0,.27.07.32v.79l0,.11,0,.14v.29l0,.25v.29a.47.47,0,0,0,.07.21v.26l.07.18.07.14.08.07v.07h0l0,0v.07h.07l.25.25.4.22.46.21.61.18.76.18,1,.15a7.11,7.11,0,0,1,1.15.07h1.36l1.22,0a4.51,4.51,0,0,0,1.22-.18l1.19-.25,1.15-.4,1-.46a4.63,4.63,0,0,0,1-.58l.93-.68.82-.75.61-.65L295,257l.47-.9.4-1,.32-1,.25-1.11.14-1.08.11-1.15v-.11l0-.11V249a1.77,1.77,0,0,1-.07-.43,4.58,4.58,0,0,0-.15-1.22l-.25-1.15-.32-1-.22-.47-.18-.46-.21-.44-.22-.43-.21-.39-.22-.4-.25-.36-.22-.32-.14-.14-.14-.15-.11-.14-.11-.14-.07-.08-.11-.1-.14-.22-.11-.14L292,239.55c-.2-.16-.41-.33-.65-.5s-.48-.32-.72-.47l-1.43-.68a12,12,0,0,0-1.48-.5l-1.54-.29-1.55-.25-1.58-.11-1.54-.07h-.22l-.14,0h-.61a.46.46,0,0,0-.22.07h-.43l-.1,0a1,1,0,0,0-.29.07h-.25l-.07,0L279,237l-.07.07-.07.08-.07.07,0,.07,0,.11v.25l0,.39v11.64Z" transform="translate(-65.26 -70)" style="fill: #ffa700"/>
      <g style="mix-blend-mode: color-burn">
        <g style="clip-path: url(#clip-path-2)">
          <path d="M101.46,157.7l.72.34-.72,2.75,1.15.36.53-2.66.13.06,1.11.17.1-.26,3.14,5.45,3,.92-1.89,1.53-6.51-.45-3-1.54v3.77L102,168l.85-.73,6.42,1.23,2.19-1.37,0,.22.15,1.65h0l0,.2.45,2,.47,2.13-1.79,6,.38,6.15.24,3.8-2.18,1-.67,1.42,5.65-.45s0-2.27,0-4.63v-1c0-.27,0-.53,0-.78,0-1.93,0-3.52.08-3.45a12.27,12.27,0,0,0,1.13-2.1l1.47,3.47,2.51,2.84,2.48,3.49-1.72.92-.33,1.61,6-1.61-2.69-4.77L120,181.35l-1.88-7.71,0-.09.16-.34-1.51-5,.59-5.14L116,161.46l-1.14-1.31-.12-.6.2,0,.7-.12h0l.13,0,.14-.26,1.31-2.42c.59.13,1,.18,1,.08,0-.35.13-.56-.21-.75a3.44,3.44,0,0,0,.22-.82.11.11,0,0,1,0-.05,3.36,3.36,0,0,0-1.89-3.41,3,3,0,0,0-4,1l-.18.28a5.17,5.17,0,0,0-.39.85,1.53,1.53,0,0,0-.79-.09c-.23.1-1.08.61-.63.83.12.06.77.28,1.64.56l0,.49v0l-1.25,1.05.53.92-.32,1.85,1.05.58.48-.09.17,1.19-.12.05h0l-.39.84s-.16.23-.38.59l-2.73-.5L105,156.92l-.06.1-.62-1.42-.54-.25.51-2.57,1.18.32,1.43-.51-1.16-1.07-.83-.17-2.53-.5-.29,1.22,0,.09,1.56.43L103,155l-.6-.28-.92,3" transform="translate(-65.26 -70)" style="fill: #fff"/>
        </g>
      </g>
    </g>
  </g>
</svg>
